<svg xmlns="http://www.w3.org/2000/svg" width="34.638" height="29.699" viewBox="0 0 34.638 29.699">
  <path id="Path_191" data-name="Path 191" d="M183.889,1476.311a1.579,1.579,0,0,0-1.21.562l-2.048,2.44A4.735,4.735,0,0,1,177,1481h-3.248a1.569,1.569,0,0,0-1.575,1.563v15.632a1.569,1.569,0,0,0,1.575,1.563h25.19a1.569,1.569,0,0,0,1.575-1.563v-15.632a1.569,1.569,0,0,0-1.575-1.563H195.7a4.739,4.739,0,0,1-3.629-1.687l-2.047-2.44a1.581,1.581,0,0,0-1.21-.562Zm-3.629-1.439a4.739,4.739,0,0,1,3.629-1.687h4.922a4.739,4.739,0,0,1,3.629,1.687l2.047,2.44a1.581,1.581,0,0,0,1.21.562h3.248a4.707,4.707,0,0,1,4.724,4.689v15.632a4.706,4.706,0,0,1-4.724,4.689h-25.19a4.706,4.706,0,0,1-4.724-4.689v-15.632a4.707,4.707,0,0,1,4.724-4.689H177a1.579,1.579,0,0,0,1.209-.562Zm6.09,20.2a4.69,4.69,0,1,0-4.723-4.69A4.706,4.706,0,0,0,186.35,1495.069Zm0,3.126a7.816,7.816,0,1,0-7.872-7.816A7.844,7.844,0,0,0,186.35,1498.195Zm11.021-12.505a1.564,1.564,0,1,0-1.575-1.563A1.569,1.569,0,0,0,197.371,1485.69Z" transform="translate(-169.031 -1473.185)" fill="#cad3db" fill-rule="evenodd"/>
</svg>
